# xmcd CD database file
# Copyright (C) 1995-1998 Ti Kan
#
# Track frame offsets:
#	150
#	18170
#	24790
#	43222
#	61432
#	81285
#	104710
#	125585
#	134895
#
# Disc length: 2153 seconds
#
# Revision: 1
# Processed by: cddbd v1.4b42PL1 Copyright (c) Steve Scherf et al.
# Submitted via: CDex 1.30Release
#
DISCID=7e086709
DTITLE=Bill Miller - Loon, Mountain, and Moon -- Native Amer Flute Songs
DYEAR=1900
DGENRE=Native American
TTITLE0=Loon, Mountain, and Moon
TTITLE1=Canyon Dance
TTITLE2=White Road, Red Heart
TTITLE3=Mohican Lullabye
TTITLE4=Night Chase II
TTITLE5=The Little Bighorn March
TTITLE6=Beyond the Battle
TTITLE7=Three Tribes
TTITLE8=Amazing Grace
EXTD=ID3G:  64
EXTT0=
EXTT1=
EXTT2=
EXTT3=
EXTT4=
EXTT5=
EXTT6=
EXTT7=
EXTT8=
PLAYORDER=
